<svg width="58" height="71" viewBox="0 0 58 71" fill="none" xmlns="http://www.w3.org/2000/svg">
<path d="M4.68907 30.291C3.95046 30.291 3.3163 30.0298 2.78658 29.5076C2.26433 28.9779 2.00321 28.3437 2.00321 27.6051C2.00321 26.874 2.26433 26.2473 2.78658 25.725C3.3163 25.2027 3.95046 24.9416 4.68907 24.9416C5.4053 24.9416 6.032 25.2027 6.56918 25.725C7.10635 26.2473 7.37494 26.874 7.37494 27.6051C7.37494 28.0975 7.2481 28.5489 6.99444 28.9592C6.74823 29.3621 6.42369 29.6866 6.02081 29.9329C5.61793 30.1716 5.17402 30.291 4.68907 30.291ZM20.2923 30.291C19.5537 30.291 18.9195 30.0298 18.3898 29.5076C17.8675 28.9779 17.6064 28.3437 17.6064 27.6051C17.6064 26.874 17.8675 26.2473 18.3898 25.725C18.9195 25.2027 19.5537 24.9416 20.2923 24.9416C21.0085 24.9416 21.6352 25.2027 22.1724 25.725C22.7095 26.2473 22.9781 26.874 22.9781 27.6051C22.9781 28.0975 22.8513 28.5489 22.5976 28.9592C22.3514 29.3621 22.0269 29.6866 21.624 29.9329C21.2211 30.1716 20.7772 30.291 20.2923 30.291ZM35.8955 30.291C35.1568 30.291 34.5227 30.0298 33.993 29.5076C33.4707 28.9779 33.2096 28.3437 33.2096 27.6051C33.2096 26.874 33.4707 26.2473 33.993 25.725C34.5227 25.2027 35.1568 24.9416 35.8955 24.9416C36.6117 24.9416 37.2384 25.2027 37.7756 25.725C38.3127 26.2473 38.5813 26.874 38.5813 27.6051C38.5813 28.0975 38.4545 28.5489 38.2008 28.9592C37.9546 29.3621 37.6301 29.6866 37.2272 29.9329C36.8243 30.1716 36.3804 30.291 35.8955 30.291ZM51.4987 30.291C50.76 30.291 50.1259 30.0298 49.5962 29.5076C49.0739 28.9779 48.8128 28.3437 48.8128 27.6051C48.8128 26.874 49.0739 26.2473 49.5962 25.725C50.1259 25.2027 50.76 24.9416 51.4987 24.9416C52.2149 24.9416 52.8416 25.2027 53.3788 25.725C53.9159 26.2473 54.1845 26.874 54.1845 27.6051C54.1845 28.0975 54.0577 28.5489 53.804 28.9592C53.5578 29.3621 53.2333 29.6866 52.8304 29.9329C52.4275 30.1716 51.9836 30.291 51.4987 30.291Z" fill="#005491" fill-opacity="0.56"/>
<path d="M4.68907 43.1696C3.95046 43.1696 3.3163 42.9085 2.78658 42.3863C2.26433 41.8565 2.00321 41.2224 2.00321 40.4838C2.00321 39.7526 2.26433 39.1259 2.78658 38.6037C3.3163 38.0814 3.95046 37.8203 4.68907 37.8203C5.4053 37.8203 6.032 38.0814 6.56918 38.6037C7.10635 39.1259 7.37494 39.7526 7.37494 40.4838C7.37494 40.9762 7.2481 41.4275 6.99444 41.8379C6.74823 42.2408 6.42369 42.5653 6.02081 42.8115C5.61793 43.0503 5.17402 43.1696 4.68907 43.1696ZM20.2923 43.1696C19.5537 43.1696 18.9195 42.9085 18.3898 42.3863C17.8675 41.8565 17.6064 41.2224 17.6064 40.4838C17.6064 39.7526 17.8675 39.1259 18.3898 38.6037C18.9195 38.0814 19.5537 37.8203 20.2923 37.8203C21.0085 37.8203 21.6352 38.0814 22.1724 38.6037C22.7095 39.1259 22.9781 39.7526 22.9781 40.4838C22.9781 40.9762 22.8513 41.4275 22.5976 41.8379C22.3514 42.2408 22.0269 42.5653 21.624 42.8115C21.2211 43.0503 20.7772 43.1696 20.2923 43.1696ZM35.8955 43.1696C35.1568 43.1696 34.5227 42.9085 33.993 42.3863C33.4707 41.8565 33.2096 41.2224 33.2096 40.4838C33.2096 39.7526 33.4707 39.1259 33.993 38.6037C34.5227 38.0814 35.1568 37.8203 35.8955 37.8203C36.6117 37.8203 37.2384 38.0814 37.7756 38.6037C38.3127 39.1259 38.5813 39.7526 38.5813 40.4838C38.5813 40.9762 38.4545 41.4275 38.2008 41.8379C37.9546 42.2408 37.6301 42.5653 37.2272 42.8115C36.8243 43.0503 36.3804 43.1696 35.8955 43.1696ZM51.4987 43.1696C50.76 43.1696 50.1259 42.9085 49.5962 42.3863C49.0739 41.8565 48.8128 41.2224 48.8128 40.4838C48.8128 39.7526 49.0739 39.1259 49.5962 38.6037C50.1259 38.0814 50.76 37.8203 51.4987 37.8203C52.2149 37.8203 52.8416 38.0814 53.3788 38.6037C53.9159 39.1259 54.1845 39.7526 54.1845 40.4838C54.1845 40.9762 54.0577 41.4275 53.804 41.8379C53.5578 42.2408 53.2333 42.5653 52.8304 42.8115C52.4275 43.0503 51.9836 43.1696 51.4987 43.1696Z" fill="#005491" fill-opacity="0.56"/>
<path d="M4.68907 56.0483C3.95046 56.0483 3.3163 55.7872 2.78658 55.2649C2.26433 54.7352 2.00321 54.101 2.00321 53.3624C2.00321 52.6313 2.26433 52.0046 2.78658 51.4823C3.3163 50.9601 3.95046 50.6989 4.68907 50.6989C5.4053 50.6989 6.032 50.9601 6.56918 51.4823C7.10635 52.0046 7.37494 52.6313 7.37494 53.3624C7.37494 53.8548 7.2481 54.3062 6.99444 54.7166C6.74823 55.1194 6.42369 55.444 6.02081 55.6902C5.61793 55.9289 5.17402 56.0483 4.68907 56.0483ZM20.2923 56.0483C19.5537 56.0483 18.9195 55.7872 18.3898 55.2649C17.8675 54.7352 17.6064 54.101 17.6064 53.3624C17.6064 52.6313 17.8675 52.0046 18.3898 51.4823C18.9195 50.9601 19.5537 50.6989 20.2923 50.6989C21.0085 50.6989 21.6352 50.9601 22.1724 51.4823C22.7095 52.0046 22.9781 52.6313 22.9781 53.3624C22.9781 53.8548 22.8513 54.3062 22.5976 54.7166C22.3514 55.1194 22.0269 55.444 21.624 55.6902C21.2211 55.9289 20.7772 56.0483 20.2923 56.0483ZM35.8955 56.0483C35.1568 56.0483 34.5227 55.7872 33.993 55.2649C33.4707 54.7352 33.2096 54.101 33.2096 53.3624C33.2096 52.6313 33.4707 52.0046 33.993 51.4823C34.5227 50.9601 35.1568 50.6989 35.8955 50.6989C36.6117 50.6989 37.2384 50.9601 37.7756 51.4823C38.3127 52.0046 38.5813 52.6313 38.5813 53.3624C38.5813 53.8548 38.4545 54.3062 38.2008 54.7166C37.9546 55.1194 37.6301 55.444 37.2272 55.6902C36.8243 55.9289 36.3804 56.0483 35.8955 56.0483ZM51.4987 56.0483C50.76 56.0483 50.1259 55.7872 49.5962 55.2649C49.0739 54.7352 48.8128 54.101 48.8128 53.3624C48.8128 52.6313 49.0739 52.0046 49.5962 51.4823C50.1259 50.9601 50.76 50.6989 51.4987 50.6989C52.2149 50.6989 52.8416 50.9601 53.3788 51.4823C53.9159 52.0046 54.1845 52.6313 54.1845 53.3624C54.1845 53.8548 54.0577 54.3062 53.804 54.7166C53.5578 55.1194 53.2333 55.444 52.8304 55.6902C52.4275 55.9289 51.9836 56.0483 51.4987 56.0483Z" fill="#005491" fill-opacity="0.56"/>
<path d="M4.68907 70.5368C3.95046 70.5368 3.3163 70.2757 2.78658 69.7534C2.26433 69.2237 2.00321 68.5896 2.00321 67.851C2.00321 67.1198 2.26433 66.4931 2.78658 65.9708C3.3163 65.4486 3.95046 65.1875 4.68907 65.1875C5.4053 65.1875 6.032 65.4486 6.56918 65.9708C7.10635 66.4931 7.37494 67.1198 7.37494 67.851C7.37494 68.3434 7.2481 68.7947 6.99444 69.2051C6.74823 69.608 6.42369 69.9325 6.02081 70.1787C5.61793 70.4174 5.17402 70.5368 4.68907 70.5368ZM20.2923 70.5368C19.5537 70.5368 18.9195 70.2757 18.3898 69.7534C17.8675 69.2237 17.6064 68.5896 17.6064 67.851C17.6064 67.1198 17.8675 66.4931 18.3898 65.9708C18.9195 65.4486 19.5537 65.1875 20.2923 65.1875C21.0085 65.1875 21.6352 65.4486 22.1724 65.9708C22.7095 66.4931 22.9781 67.1198 22.9781 67.851C22.9781 68.3434 22.8513 68.7947 22.5976 69.2051C22.3514 69.608 22.0269 69.9325 21.624 70.1787C21.2211 70.4174 20.7772 70.5368 20.2923 70.5368ZM35.8955 70.5368C35.1568 70.5368 34.5227 70.2757 33.993 69.7534C33.4707 69.2237 33.2096 68.5896 33.2096 67.851C33.2096 67.1198 33.4707 66.4931 33.993 65.9708C34.5227 65.4486 35.1568 65.1875 35.8955 65.1875C36.6117 65.1875 37.2384 65.4486 37.7756 65.9708C38.3127 66.4931 38.5813 67.1198 38.5813 67.851C38.5813 68.3434 38.4545 68.7947 38.2008 69.2051C37.9546 69.608 37.6301 69.9325 37.2272 70.1787C36.8243 70.4174 36.3804 70.5368 35.8955 70.5368ZM51.4987 70.5368C50.76 70.5368 50.1259 70.2757 49.5962 69.7534C49.0739 69.2237 48.8128 68.5896 48.8128 67.851C48.8128 67.1198 49.0739 66.4931 49.5962 65.9708C50.1259 65.4486 50.76 65.1875 51.4987 65.1875C52.2149 65.1875 52.8416 65.4486 53.3788 65.9708C53.9159 66.4931 54.1845 67.1198 54.1845 67.851C54.1845 68.3434 54.0577 68.7947 53.804 69.2051C53.5578 69.608 53.2333 69.9325 52.8304 70.1787C52.4275 70.4174 51.9836 70.5368 51.4987 70.5368Z" fill="#005491" fill-opacity="0.56"/>
</svg>
